<mxfile host="app.diagrams.net" modified="2021-01-08T10:55:35.496Z" agent="5.0 (Macintosh; Intel Mac OS X 10_15_7) AppleWebKit/537.36 (KHTML, like Gecko) Chrome/87.0.4280.88 Safari/537.36" etag="9YM5XsDPScXIlkuPLITQ" version="13.11.0" type="github">
  <diagram id="TKadBTPjtyTgw6mu7Hoj" name="Page-1">
    <mxGraphModel dx="1187" dy="595" grid="1" gridSize="10" guides="1" tooltips="1" connect="1" arrows="1" fold="1" page="1" pageScale="1" pageWidth="827" pageHeight="1169" math="0" shadow="0">
      <root>
        <mxCell id="0" />
        <mxCell id="1" parent="0" />
        <mxCell id="VeyBq3pdeurJo3NbXY0x-1" value="服务B" style="rounded=0;whiteSpace=wrap;html=1;fillColor=#FF6666;" vertex="1" parent="1">
          <mxGeometry x="440" y="160" width="120" height="40" as="geometry" />
        </mxCell>
        <mxCell id="VeyBq3pdeurJo3NbXY0x-2" value="服务C" style="rounded=0;whiteSpace=wrap;html=1;" vertex="1" parent="1">
          <mxGeometry x="440" y="240" width="120" height="40" as="geometry" />
        </mxCell>
        <mxCell id="VeyBq3pdeurJo3NbXY0x-3" value="服务D" style="rounded=0;whiteSpace=wrap;html=1;" vertex="1" parent="1">
          <mxGeometry x="440" y="320" width="120" height="40" as="geometry" />
        </mxCell>
        <mxCell id="VeyBq3pdeurJo3NbXY0x-6" style="edgeStyle=orthogonalEdgeStyle;rounded=0;orthogonalLoop=1;jettySize=auto;html=1;exitX=0.5;exitY=0;exitDx=0;exitDy=0;entryX=0;entryY=0.5;entryDx=0;entryDy=0;" edge="1" parent="1" source="VeyBq3pdeurJo3NbXY0x-4" target="VeyBq3pdeurJo3NbXY0x-1">
          <mxGeometry relative="1" as="geometry" />
        </mxCell>
        <mxCell id="VeyBq3pdeurJo3NbXY0x-9" value="A调用B发生了慢调用或者异常" style="edgeLabel;html=1;align=center;verticalAlign=middle;resizable=0;points=[];" vertex="1" connectable="0" parent="VeyBq3pdeurJo3NbXY0x-6">
          <mxGeometry x="-0.3667" relative="1" as="geometry">
            <mxPoint y="-20" as="offset" />
          </mxGeometry>
        </mxCell>
        <mxCell id="VeyBq3pdeurJo3NbXY0x-7" style="edgeStyle=orthogonalEdgeStyle;rounded=0;orthogonalLoop=1;jettySize=auto;html=1;exitX=1;exitY=0.5;exitDx=0;exitDy=0;entryX=0;entryY=0.5;entryDx=0;entryDy=0;" edge="1" parent="1" source="VeyBq3pdeurJo3NbXY0x-4" target="VeyBq3pdeurJo3NbXY0x-2">
          <mxGeometry relative="1" as="geometry" />
        </mxCell>
        <mxCell id="VeyBq3pdeurJo3NbXY0x-8" style="edgeStyle=orthogonalEdgeStyle;rounded=0;orthogonalLoop=1;jettySize=auto;html=1;exitX=0.5;exitY=1;exitDx=0;exitDy=0;entryX=0;entryY=0.5;entryDx=0;entryDy=0;" edge="1" parent="1" source="VeyBq3pdeurJo3NbXY0x-4" target="VeyBq3pdeurJo3NbXY0x-3">
          <mxGeometry relative="1" as="geometry" />
        </mxCell>
        <mxCell id="VeyBq3pdeurJo3NbXY0x-4" value="服务A" style="rounded=0;whiteSpace=wrap;html=1;" vertex="1" parent="1">
          <mxGeometry x="200" y="240" width="120" height="40" as="geometry" />
        </mxCell>
      </root>
    </mxGraphModel>
  </diagram>
</mxfile>
